<?xml version="1.0" standalone="no"?>
<!DOCTYPE svg PUBLIC "-//W3C//DTD SVG 20010904//EN"
 "http://www.w3.org/TR/2001/REC-SVG-20010904/DTD/svg10.dtd">
<svg version="1.0" xmlns="http://www.w3.org/2000/svg"
 width="992.000000pt" height="325.000000pt" viewBox="0 0 992.000000 325.000000"
 preserveAspectRatio="xMidYMid meet">

<g transform="translate(0.000000,325.000000) scale(0.100000,-0.100000)"
fill="#000000" stroke="none">
<path d="M3 2692 c4 -5 30 -12 59 -15 61 -8 122 -46 150 -94 18 -29 19 -76 18
-918 0 -849 -1 -890 -19 -931 -26 -58 -85 -96 -157 -102 -30 -2 -54 -8 -54
-13 0 -5 285 -9 651 -9 705 0 766 4 945 56 96 27 244 92 244 106 0 5 4 7 8 4
12 -7 54 23 47 35 -3 5 0 7 7 4 17 -6 111 63 103 76 -4 5 -1 8 7 7 7 -2 12 3
10 10 -1 8 3 12 9 10 12 -4 56 41 117 120 27 35 31 46 22 57 -8 9 -9 25 -4 42
4 16 6 34 5 41 -4 21 46 65 68 59 15 -3 17 0 13 17 -3 11 -7 15 -10 8 -2 -6
-11 -12 -21 -12 -9 0 -23 -9 -31 -20 -19 -26 -34 -26 -27 0 4 15 0 20 -14 20
-16 0 -19 7 -19 40 0 36 -2 40 -25 40 -24 0 -25 2 -25 65 l0 65 -40 0 -40 0 0
95 0 95 -55 0 -55 0 0 40 c0 36 -2 40 -25 40 -25 0 -25 1 -25 80 l0 80 -40 0
-40 0 0 80 0 80 -40 0 c-38 0 -40 -1 -41 -32 -1 -25 -3 -21 -9 17 -4 28 -4 54
0 59 9 9 -6 62 -23 84 -5 7 -7 16 -3 20 4 4 15 -2 23 -13 14 -17 15 -18 9 -2
-3 10 -6 21 -6 23 0 2 -10 4 -23 4 -27 0 -72 -29 -47 -30 20 -1 55 -28 47 -37
-4 -3 -14 2 -21 13 -16 21 -33 14 -20 -8 5 -7 9 -20 11 -28 1 -8 6 -16 11 -18
6 -2 8 -11 5 -21 -3 -10 -1 -21 4 -24 5 -3 8 12 8 33 0 21 3 36 7 34 8 -5 4
-62 -6 -86 -4 -9 -2 -26 4 -37 6 -12 8 -27 4 -33 -4 -6 -3 -9 2 -5 12 7 15
-38 17 -263 2 -229 -5 -330 -32 -418 -5 -18 -10 -36 -10 -40 -2 -20 -38 -115
-65 -172 -62 -129 -143 -215 -254 -269 -83 -41 -144 -51 -317 -51 l-155 0 -2
901 c-2 495 0 903 5 906 9 5 381 1 425 -5 6 -1 12 -7 12 -14 0 -9 -3 -9 -12 0
-7 7 -21 12 -33 11 -12 0 0 -8 28 -20 27 -10 53 -16 59 -13 7 4 8 2 4 -4 -6
-11 0 -14 22 -11 4 1 6 5 4 10 -4 17 27 21 43 6 8 -8 20 -17 27 -20 7 -2 10
-8 6 -12 -5 -5 -16 -1 -25 7 -31 26 -41 29 -39 11 0 -10 21 -35 46 -57 24 -21
57 -55 73 -75 37 -46 45 -53 25 -20 -12 19 -14 29 -6 37 15 15 -10 45 -30 37
-15 -6 -87 43 -78 53 3 3 14 -2 24 -11 17 -15 18 -15 17 8 0 13 -9 31 -20 39
-20 15 -20 15 3 16 19 0 22 5 22 40 0 33 3 40 20 40 11 0 20 4 20 9 0 5 -11 8
-24 7 -13 0 -23 -3 -21 -6 2 -3 -15 -6 -36 -6 l-40 -1 31 19 c19 11 40 16 53
13 15 -4 18 -3 9 3 -8 5 -13 13 -13 18 1 5 -14 9 -31 9 -18 0 -36 5 -40 10
-10 13 -1373 21 -1365 7z m1417 -29 c-14 -3 -29 -9 -34 -14 -13 -12 -26 -11
-26 2 0 5 5 7 10 4 6 -3 10 -1 10 4 0 6 15 10 33 10 27 -2 28 -2 7 -6z m-247
-70 c-7 -2 -19 -2 -25 0 -7 3 -2 5 12 5 14 0 19 -2 13 -5z m96 -13 c11 -7 1
-9 -37 -10 -29 0 -51 3 -49 8 8 11 68 13 86 2z m221 -181 c0 -6 -4 -7 -10 -4
-5 3 -10 11 -10 16 0 6 5 7 10 4 6 -3 10 -11 10 -16z m187 -481 c-3 -8 -6 -5
-6 6 -1 11 2 17 5 13 3 -3 4 -12 1 -19z m433 -832 c0 -2 -7 -9 -15 -16 -13
-11 -14 -10 -9 4 5 14 24 23 24 12z m49 -18 c-5 -10 -15 -18 -22 -18 -8 0 -6
4 3 10 13 9 13 11 0 20 -12 7 -10 9 7 7 17 -1 20 -5 12 -19z m-46 -15 c-15 -5
-18 -33 -4 -33 5 0 12 5 14 10 3 6 4 5 3 -2 -4 -19 -25 -21 -32 -4 -7 17 15
51 25 40 3 -4 0 -9 -6 -11z m-95 -57 c-7 -8 -15 -12 -17 -11 -5 6 10 25 20 25
5 0 4 -6 -3 -14z m22 -21 c-7 -9 -15 -13 -17 -11 -7 7 7 26 19 26 6 0 6 -6 -2
-15z m23 -23 c-20 -21 -28 -20 -20 3 4 8 13 15 22 15 13 0 12 -3 -2 -18z m-78
-72 c-3 -5 -11 -10 -16 -10 -6 0 -7 5 -4 10 3 6 11 10 16 10 6 0 7 -4 4 -10z
m-60 -39 c3 -5 2 -12 -3 -15 -5 -3 -9 1 -9 9 0 17 3 19 12 6z"/>
<path d="M1478 2653 c7 -3 16 -2 19 1 4 3 -2 6 -13 5 -11 0 -14 -3 -6 -6z"/>
<path d="M1505 2620 c4 -6 11 -8 16 -5 14 9 11 15 -7 15 -8 0 -12 -5 -9 -10z"/>
<path d="M1737 2579 c7 -7 15 -10 18 -7 3 3 -2 9 -12 12 -14 6 -15 5 -6 -5z"/>
<path d="M1775 2560 c-3 -5 -12 -7 -20 -3 -8 3 -15 3 -15 0 0 -13 30 -14 40
-1 7 8 10 14 7 14 -3 0 -8 -4 -12 -10z"/>
<path d="M1847 2529 c7 -7 15 -10 18 -7 3 3 -2 9 -12 12 -14 6 -15 5 -6 -5z"/>
<path d="M1975 2440 c10 -11 20 -20 23 -20 3 0 -3 9 -13 20 -10 11 -20 20 -23
20 -3 0 3 -9 13 -20z"/>
<path d="M1496 2436 c10 -8 21 -12 24 -10 5 6 -21 24 -34 24 -6 0 -1 -6 10
-14z"/>
<path d="M1576 2355 c-8 -8 -22 -12 -30 -9 -9 3 -16 2 -16 -4 0 -14 28 -23 35
-11 4 5 10 7 15 4 5 -3 10 3 13 12 2 10 4 2 4 -17 0 -19 -6 -47 -13 -62 -9
-17 -11 -35 -5 -50 8 -22 8 -22 15 -2 3 12 4 28 1 36 -4 9 1 22 9 31 21 20 22
87 2 87 -8 0 -21 -7 -30 -15z"/>
<path d="M1530 2313 c0 -4 5 -15 10 -23 8 -13 10 -13 10 2 0 9 -4 20 -10 23
-5 3 -10 3 -10 -2z"/>
<path d="M1560 2309 c0 -4 6 -10 13 -12 10 -4 10 -6 0 -6 -7 -1 -13 -9 -13
-18 1 -16 2 -16 15 1 19 25 19 43 0 43 -8 0 -15 -4 -15 -8z"/>
<path d="M2267 1420 c-3 -11 -1 -20 4 -20 5 0 9 9 9 20 0 11 -2 20 -4 20 -2 0
-6 -9 -9 -20z"/>
<path d="M2240 1405 c0 -5 5 -17 10 -25 5 -8 10 -10 10 -5 0 6 -5 17 -10 25
-5 8 -10 11 -10 5z"/>
<path d="M2240 1351 c0 -6 4 -13 10 -16 6 -3 7 1 4 9 -7 18 -14 21 -14 7z"/>
<path d="M2280 1356 c0 -2 -7 -20 -15 -40 -9 -21 -11 -36 -5 -36 5 0 10 9 10
20 0 11 4 20 8 20 4 0 8 9 9 20 1 11 0 20 -3 20 -2 0 -4 -2 -4 -4z"/>
<path d="M2207 1203 c-4 -3 -7 -17 -7 -30 0 -13 -4 -22 -9 -19 -9 6 -21 -16
-21 -40 0 -12 4 -12 20 -4 12 7 17 16 13 27 -4 11 -3 14 5 9 12 -7 16 5 13 32
-1 6 3 12 9 12 5 0 10 5 10 10 0 11 -23 14 -33 3z"/>
<path d="M2834 908 c-4 -7 -4 -10 1 -6 4 4 15 2 24 -5 14 -11 14 -10 2 6 -16
20 -18 21 -27 5z"/>
</g>
</svg>
